# xmcd
#
# Track frame offsets:
#	150
#	11125
#	23012
#	32937
#	45075
#	56125
#	68637
#	80162
#	94125
#	104637
#	115500
#	124412
#
# Disc length: 1793 seconds
#
# Revision: 1
# Processed by: cddbd v1.5.1PL0 Copyright (c) Steve Scherf et al.
# Submitted via: EasyCDDAExtractor 7.0.5.4
#
DISCID=9d06ff0c
DTITLE=Charlie Rich - Unchained Melody
DYEAR=1997
DGENRE=Country
TTITLE0=UNCHAINED MELODY
TTITLE1=GOODBYE, MARY ANN
TTITLE2=LONELY WEEKENDS
TTITLE3=MIDNIGHT BLUES
TTITLE4=WHO WILL THE NEXT FOOL BE
TTITLE5=MY HEART CRIES FOR YOU
TTITLE6=ON MY KNEES
TTITLE7=SITTIN' AND THINKIN'
TTITLE8=THAT'S HOW MUCH I LOVE YOU
TTITLE9=C. C. RIDER
TTITLE10=THAT'S RIGHT
TTITLE11=MY BABY DONE LEFT ME
EXTD=
EXTT0=
EXTT1=
EXTT2=
EXTT3=
EXTT4=
EXTT5=
EXTT6=
EXTT7=
EXTT8=
EXTT9=
EXTT10=
EXTT11=
PLAYORDER=
